<mxfile host="app.diagrams.net" agent="Mozilla/5.0 (Windows NT 10.0; Win64; x64) AppleWebKit/537.36 (KHTML, like Gecko) Chrome/131.0.0.0 Safari/537.36" version="26.0.7">
  <diagram name="Page-1" id="7e7Qy0Uy4QWxebVYE_Hr">
    <mxGraphModel dx="989" dy="1895" grid="1" gridSize="10" guides="1" tooltips="1" connect="1" arrows="1" fold="1" page="1" pageScale="1" pageWidth="850" pageHeight="1100" math="0" shadow="0">
      <root>
        <mxCell id="0" />
        <mxCell id="1" parent="0" />
        <mxCell id="ydZdoBsocQV1AhKR7nhj-1" value="YOUR_CODEBASE" style="rounded=1;whiteSpace=wrap;html=1;" parent="1" vertex="1">
          <mxGeometry x="210" y="230" width="160" height="60" as="geometry" />
        </mxCell>
        <mxCell id="ydZdoBsocQV1AhKR7nhj-3" value="PRISMJS" style="rounded=0;whiteSpace=wrap;html=1;" parent="1" vertex="1">
          <mxGeometry x="150" y="130" width="120" height="60" as="geometry" />
        </mxCell>
        <mxCell id="ydZdoBsocQV1AhKR7nhj-7" style="edgeStyle=orthogonalEdgeStyle;rounded=0;orthogonalLoop=1;jettySize=auto;html=1;entryX=0.5;entryY=0;entryDx=0;entryDy=0;" parent="1" source="ydZdoBsocQV1AhKR7nhj-4" target="ydZdoBsocQV1AhKR7nhj-3" edge="1">
          <mxGeometry relative="1" as="geometry" />
        </mxCell>
        <mxCell id="ydZdoBsocQV1AhKR7nhj-4" value="CALENDAR_PLUGIN" style="rounded=0;whiteSpace=wrap;html=1;" parent="1" vertex="1">
          <mxGeometry x="110" y="30" width="120" height="60" as="geometry" />
        </mxCell>
        <mxCell id="ydZdoBsocQV1AhKR7nhj-5" value="MARKPROMPT" style="rounded=0;whiteSpace=wrap;html=1;" parent="1" vertex="1">
          <mxGeometry x="290" y="130" width="120" height="60" as="geometry" />
        </mxCell>
        <mxCell id="ydZdoBsocQV1AhKR7nhj-8" style="edgeStyle=orthogonalEdgeStyle;rounded=0;orthogonalLoop=1;jettySize=auto;html=1;entryX=0.375;entryY=0;entryDx=0;entryDy=0;entryPerimeter=0;" parent="1" source="ydZdoBsocQV1AhKR7nhj-3" target="ydZdoBsocQV1AhKR7nhj-1" edge="1">
          <mxGeometry relative="1" as="geometry" />
        </mxCell>
        <mxCell id="ydZdoBsocQV1AhKR7nhj-9" style="edgeStyle=orthogonalEdgeStyle;rounded=0;orthogonalLoop=1;jettySize=auto;html=1;entryX=0.616;entryY=-0.031;entryDx=0;entryDy=0;entryPerimeter=0;" parent="1" source="ydZdoBsocQV1AhKR7nhj-5" target="ydZdoBsocQV1AhKR7nhj-1" edge="1">
          <mxGeometry relative="1" as="geometry" />
        </mxCell>
        <mxCell id="CKEb2evlmsNoqantxanO-1" value="YOUR_CODEBASE/somefile" style="swimlane;whiteSpace=wrap;html=1;swimlaneFillColor=default;" parent="1" vertex="1">
          <mxGeometry x="440" y="410" width="440" height="120" as="geometry" />
        </mxCell>
        <mxCell id="CKEb2evlmsNoqantxanO-2" value="&lt;div style=&quot;text-align: left;&quot;&gt;&lt;span style=&quot;font-family: &amp;quot;Lucida Console&amp;quot;; background-color: transparent; color: light-dark(rgb(0, 0, 0), rgb(255, 255, 255));&quot;&gt;import {&lt;/span&gt;&lt;span style=&quot;font-family: &amp;quot;Lucida Console&amp;quot;; background-color: transparent;&quot;&gt;&lt;font style=&quot;color: light-dark(rgb(234, 107, 102), rgb(255, 255, 255));&quot;&gt;datePickerGregorian as DatePicker&lt;/font&gt;&lt;/span&gt;&lt;span style=&quot;font-family: &amp;quot;Lucida Console&amp;quot;; background-color: transparent; color: light-dark(rgb(0, 0, 0), rgb(255, 255, 255));&quot;&gt;}&lt;/span&gt;&lt;/div&gt;&lt;div style=&quot;text-align: left;&quot;&gt;&lt;span style=&quot;font-family: &amp;quot;Lucida Console&amp;quot;; background-color: transparent; color: light-dark(rgb(0, 0, 0), rgb(255, 255, 255));&quot;&gt;from &#39;./prismjs/datePicker.js&#39;&lt;/span&gt;&lt;/div&gt;&lt;div style=&quot;text-align: left;&quot;&gt;&lt;font face=&quot;Lucida Console&quot;&gt;&lt;br&gt;&lt;/font&gt;&lt;/div&gt;&lt;div style=&quot;text-align: left;&quot;&gt;&lt;font face=&quot;Lucida Console&quot;&gt;let dob = new &lt;font style=&quot;color: rgb(234, 107, 102);&quot;&gt;DatePicker();&lt;/font&gt;&lt;/font&gt;&lt;/div&gt;" style="text;html=1;align=center;verticalAlign=middle;resizable=0;points=[];autosize=1;strokeColor=none;fillColor=none;" parent="CKEb2evlmsNoqantxanO-1" vertex="1">
          <mxGeometry x="45" y="30" width="330" height="70" as="geometry" />
        </mxCell>
        <mxCell id="CKEb2evlmsNoqantxanO-4" value="PRISMJS/datePicker.js" style="swimlane;whiteSpace=wrap;html=1;fillColor=#FFFFFF;swimlaneFillColor=default;" parent="1" vertex="1">
          <mxGeometry x="440" y="170" width="440" height="198" as="geometry">
            <mxRectangle x="40" y="480" width="160" height="30" as="alternateBounds" />
          </mxGeometry>
        </mxCell>
        <mxCell id="CKEb2evlmsNoqantxanO-5" value="&lt;div style=&quot;text-align: left;&quot;&gt;&lt;span style=&quot;font-family: &amp;quot;Lucida Console&amp;quot;; background-color: transparent; color: light-dark(rgb(0, 0, 0), rgb(255, 255, 255));&quot;&gt;import {&lt;/span&gt;&lt;/div&gt;&lt;div style=&quot;text-align: left;&quot;&gt;&lt;span style=&quot;font-family: &amp;quot;Lucida Console&amp;quot;; background-color: transparent; color: light-dark(rgb(0, 0, 0), rgb(255, 255, 255));&quot;&gt;&amp;nbsp; &amp;nbsp; &lt;/span&gt;&lt;span style=&quot;font-family: &amp;quot;Lucida Console&amp;quot;; background-color: transparent;&quot;&gt;&lt;font style=&quot;color: light-dark(rgb(234, 107, 102), rgb(255, 255, 255));&quot;&gt;gregorianCal&lt;/font&gt;&lt;/span&gt;&lt;span style=&quot;font-family: &amp;quot;Lucida Console&amp;quot;; background-color: transparent; color: light-dark(rgb(0, 0, 0), rgb(255, 255, 255));&quot;&gt;, julianCal, showaCal&lt;/span&gt;&lt;/div&gt;&lt;div style=&quot;text-align: left;&quot;&gt;&lt;span style=&quot;font-family: &amp;quot;Lucida Console&amp;quot;; background-color: transparent; color: light-dark(rgb(0, 0, 0), rgb(255, 255, 255));&quot;&gt;}&amp;nbsp;&lt;/span&gt;&lt;span style=&quot;background-color: transparent; color: light-dark(rgb(0, 0, 0), rgb(255, 255, 255)); font-family: &amp;quot;Lucida Console&amp;quot;;&quot;&gt;from &#39;./calendar_plugin/calendars.js&#39;&lt;/span&gt;&lt;/div&gt;&lt;div style=&quot;text-align: left;&quot;&gt;&lt;font face=&quot;Lucida Console&quot;&gt;&lt;br&gt;&lt;/font&gt;&lt;/div&gt;&lt;div style=&quot;text-align: left;&quot;&gt;&lt;font face=&quot;Lucida Console&quot;&gt;function &lt;font style=&quot;color: rgb(234, 107, 102);&quot;&gt;datePickerGregorian&lt;/font&gt;(template, defaultDate) {&lt;/font&gt;&lt;/div&gt;&lt;div style=&quot;text-align: left;&quot;&gt;&lt;font face=&quot;Lucida Console&quot;&gt;&amp;nbsp; &amp;nbsp; let datepicker = new &lt;font style=&quot;color: rgb(234, 107, 102);&quot;&gt;gregorianCal()&lt;/font&gt;&amp;nbsp;&lt;/font&gt;&lt;/div&gt;&lt;div style=&quot;text-align: left;&quot;&gt;&lt;font face=&quot;Lucida Console&quot;&gt;&amp;nbsp; &amp;nbsp; ...&lt;/font&gt;&lt;/div&gt;&lt;div style=&quot;text-align: left;&quot;&gt;&lt;span style=&quot;font-family: &amp;quot;Lucida Console&amp;quot;; background-color: transparent; color: light-dark(rgb(0, 0, 0), rgb(255, 255, 255));&quot;&gt;}&lt;/span&gt;&lt;/div&gt;&lt;div style=&quot;text-align: left;&quot;&gt;&lt;font face=&quot;Lucida Console&quot;&gt;function datePickerShowa(template, defaultDate) {&lt;/font&gt;&lt;/div&gt;&lt;div style=&quot;text-align: left;&quot;&gt;&lt;font face=&quot;Lucida Console&quot;&gt;...&lt;/font&gt;&lt;/div&gt;&lt;div style=&quot;text-align: left;&quot;&gt;&lt;font face=&quot;Lucida Console&quot;&gt;}&lt;/font&gt;&lt;/div&gt;" style="text;html=1;align=center;verticalAlign=middle;resizable=0;points=[];autosize=1;strokeColor=none;fillColor=none;" parent="CKEb2evlmsNoqantxanO-4" vertex="1">
          <mxGeometry x="5" y="18" width="410" height="180" as="geometry" />
        </mxCell>
        <mxCell id="CKEb2evlmsNoqantxanO-6" style="edgeStyle=orthogonalEdgeStyle;rounded=0;orthogonalLoop=1;jettySize=auto;html=1;entryX=0.5;entryY=0;entryDx=0;entryDy=0;exitX=0.5;exitY=1;exitDx=0;exitDy=0;" parent="1" source="CKEb2evlmsNoqantxanO-4" target="CKEb2evlmsNoqantxanO-1" edge="1">
          <mxGeometry relative="1" as="geometry" />
        </mxCell>
        <mxCell id="CKEb2evlmsNoqantxanO-9" style="edgeStyle=orthogonalEdgeStyle;rounded=0;orthogonalLoop=1;jettySize=auto;html=1;" parent="1" source="CKEb2evlmsNoqantxanO-7" target="CKEb2evlmsNoqantxanO-4" edge="1">
          <mxGeometry relative="1" as="geometry" />
        </mxCell>
        <mxCell id="CKEb2evlmsNoqantxanO-7" value="CALENDAR_PLUGIN/calendars.js" style="swimlane;whiteSpace=wrap;html=1;swimlaneFillColor=default;" parent="1" vertex="1">
          <mxGeometry x="440" y="20" width="440" height="110" as="geometry" />
        </mxCell>
        <mxCell id="CKEb2evlmsNoqantxanO-8" value="&lt;div style=&quot;text-align: left;&quot;&gt;&lt;font face=&quot;Lucida Console&quot;&gt;function &lt;font style=&quot;color: rgb(234, 107, 102);&quot;&gt;gregorianCal()&lt;/font&gt; {&lt;/font&gt;&lt;/div&gt;&lt;div style=&quot;text-align: left;&quot;&gt;&lt;font face=&quot;Lucida Console&quot;&gt;//pretend there is a vuln here&amp;nbsp;&lt;/font&gt;&lt;/div&gt;&lt;div style=&quot;text-align: left;&quot;&gt;&lt;font face=&quot;Lucida Console&quot;&gt;//that may have to do with fetching&amp;nbsp;&lt;/font&gt;&lt;/div&gt;&lt;div style=&quot;text-align: left;&quot;&gt;&lt;font face=&quot;Lucida Console&quot;&gt;time or something&lt;/font&gt;&lt;/div&gt;&lt;div style=&quot;text-align: left;&quot;&gt;&lt;font face=&quot;Lucida Console&quot;&gt;}&lt;/font&gt;&lt;/div&gt;" style="text;html=1;align=center;verticalAlign=middle;resizable=0;points=[];autosize=1;strokeColor=none;fillColor=none;" parent="CKEb2evlmsNoqantxanO-7" vertex="1">
          <mxGeometry x="70" y="20" width="280" height="90" as="geometry" />
        </mxCell>
      </root>
    </mxGraphModel>
  </diagram>
</mxfile>
